Coordinates
version=1
nRows=17
nColumns=24
inDegrees=yes

Units are S.I. units (second, meters, Newtons, ...)
Angles are in degrees.

endheader
time	pelvis_tilt	pelvis_list	pelvis_rotation	pelvis_tx	pelvis_ty	pelvis_tz	hip_flexion_r	hip_adduction_r	hip_rotation_r	knee_angle_r	ankle_angle_r	subtalar_angle_r	mtp_angle_r	hip_flexion_l	hip_adduction_l	hip_rotation_l	knee_angle_l	ankle_angle_l	subtalar_angle_l	mtp_angle_l	lumbar_extension	lumbar_bending	lumbar_rotation
      0.92500000	    -10.22820952	      0.72370565	      2.72330447	     -0.24946272	      1.23380357	     -0.82499017	     36.18286689	      1.02139901	     -2.99240692	    -40.02290119	      7.76740598	     -6.17709972	      6.46816651	     14.35919409	     11.55786244	     11.73135606	    -19.79327030	      7.40180804	     -1.90625253	      7.85261089	     -3.46063581	     -3.27114635	     -1.81289097
      0.93000000	    -10.30861732	      0.68847295	      2.72634638	     -0.24447101	      1.23351064	     -0.82494862	     36.26050865	      1.10508111	     -2.95631046	    -38.01024303	      7.86005656	     -6.29516399	      6.27515875	     14.05297093	     11.50791885	     11.73558694	    -19.81506330	      7.70730795	     -1.79189468	      7.84586576	     -3.42269277	     -3.28078229	     -1.87726296
      0.93500000	    -10.38170792	      0.65454160	      2.72749063	     -0.23947462	      1.23320467	     -0.82485973	     36.26750696	      1.19758231	     -2.91134358	    -35.88562415	      7.90609055	     -6.45414158	      6.06954117	     13.74718861	     11.45158973	     11.71463815	    -19.85137943	      8.02932864	     -1.61650963	      7.84924924	     -3.39530611	     -3.30254304	     -1.89532899
      0.94000000	    -10.45675643	      0.61423226	      2.73833956	     -0.23441936	      1.23287904	     -0.82476806	     36.20450393	      1.28754739	     -2.89713190	    -33.64522576	      7.89812675	     -6.60790877	      5.88531695	     13.44563230	     11.38715399	     11.68011569	    -19.89880905	      8.36540265	     -1.40951971	      7.85126241	     -3.35609289	     -3.32002379	     -1.90335106
      0.94500000	    -10.53548591	      0.57591579	      2.73764582	     -0.22931842	      1.23251842	     -0.82462189	     36.07327476	      1.39232051	     -2.85933153	    -31.28439756	      7.81836932	     -6.80235418	      5.73001544	     13.16456070	     11.31418979	     11.58007753	    -19.98307291	      8.75698990	     -1.11506710	      7.83104354	     -3.30440596	     -3.34788992	     -1.85379951
      0.95000000	    -10.62019363	      0.53393379	      2.80503059	     -0.22418632	      1.23213678	     -0.82459403	     35.87513842	      1.43480726	     -2.95588242	    -28.82720093	      7.67618930	     -6.84216829	      5.64265844	     12.88193780	     11.26792634	     11.61390299	    -20.06104866	      9.05994142	     -0.92991633	      7.84559771	     -3.25219597	     -3.36348978	     -1.91024389
      0.95500000	    -10.71409670	      0.51674273	      2.81842885	     -0.21893471	      1.23168229	     -0.82441910	     35.63848339	      1.50830202	     -2.97310686	    -26.31213294	      7.44967059	     -7.00699315	      5.63432568	     12.61005173	     11.20955188	     11.46339261	    -20.14819330	      9.46480592	     -0.55210534	      7.81743023	     -3.16315895	     -3.41722464	     -1.86272134
      0.96000000	    -10.80784329	      0.51828481	      2.88530643	     -0.21369410	      1.23116574	     -0.82434036	     35.38313583	      1.50947691	     -3.12148284	    -23.82561418	      7.25267468	     -6.94552682	      5.63570730	     12.33640335	     11.20135700	     11.44243472	    -20.23843852	      9.79777488	     -0.31286712	      7.82405055	     -3.08384526	     -3.48230208	     -1.87752754
      0.96500000	    -10.94419205	      0.52761156	      2.99025735	     -0.20843805	      1.23056259	     -0.82433108	     35.16969864	      1.46717789	     -3.38682293	    -21.40233223	      7.04744517	     -6.73849515	      5.61799828	     12.13076254	     11.22562475	     11.49114496	    -20.37440120	     10.07249266	     -0.15897253	      7.87638463	     -2.95456421	     -3.55204821	     -1.90694064
      0.97000000	    -11.05707771	      0.54986746	      3.06392189	     -0.20310114	      1.22995856	     -0.82423226	     34.91359401	      1.44614122	     -3.65723365	    -19.02609922	      6.86242136	     -6.48236525	      5.64514553	     11.87479645	     11.23502092	     11.45565329	    -20.46923130	     10.38603358	      0.09840527	      7.93572843	     -2.84120112	     -3.63567449	     -1.92133213
      0.97500000	    -11.18822975	      0.57139735	      3.14878538	     -0.19776416	      1.22930621	     -0.82415063	     34.67433233	      1.42188141	     -3.99336266	    -16.72685036	      6.67137951	     -6.10475222	      5.69518366	     11.67022038	     11.25367988	     11.42671802	    -20.62539441	     10.69678317	      0.34803534	      7.99726794	     -2.70904510	     -3.71466816	     -1.91104467
      0.98000000	    -11.31495321	      0.59424896	      3.22213624	     -0.19235705	      1.22864708	     -0.82402316	     34.41813876	      1.41598024	     -4.36306149	    -14.50006108	      6.51193141	     -5.60077526	      5.80492320	     11.44734556	     11.25835421	     11.36012329	    -20.76194683	     11.04162948	      0.66796325	      8.05905071	     -2.57223737	     -3.79392002	     -1.93234314
      0.98500000	    -11.45059313	      0.61038212	      3.32486995	     -0.18697785	      1.22795897	     -0.82393576	     34.17370695	      1.40697585	     -4.82165393	    -12.37269133	      6.32759649	     -5.01765054	      5.91686648	     11.27289637	     11.27325008	     11.34353330	    -20.97122592	     11.33994450	      0.94551561	      8.13501121	     -2.43006917	     -3.86403101	     -1.91049791
      0.99000000	    -11.58025768	      0.62549728	      3.42190714	     -0.18153756	      1.22726606	     -0.82382362	     33.92295384	      1.41594112	     -5.31678121	    -10.35617318	      6.15626735	     -4.31490685	      6.07796087	     11.08735864	     11.27832281	     11.30592984	    -21.17796004	     11.64687314	      1.24809779	      8.22965405	     -2.28308752	     -3.93072847	     -1.90516996
      0.99500000	    -11.70599072	      0.65179506	      3.51017843	     -0.17607093	      1.22655646	     -0.82366947	     33.68377685	      1.43215136	     -5.82534806	     -8.48178477	      6.03092846	     -3.44628980	      6.33128918	     10.89666828	     11.28501574	     11.24605778	    -21.38393362	     11.98526612	      1.61557182	      8.32724821	     -2.14153058	     -4.00175194	     -1.93392392
      1.00000000	    -11.84232133	      0.67667167	      3.59676347	     -0.17060928	      1.22581954	     -0.82351222	     33.49022344	      1.45989185	     -6.37861262	     -6.78907923	      5.90175303	     -2.48593016	      6.64327027	     10.75461940	     11.29370531	     11.16876367	    -21.65826360	     12.28904717	      1.97903173	      8.42035828	     -1.98508483	     -4.07253645	     -1.88878863
      1.00500000	    -11.98056123	      0.69577526	      3.69332348	     -0.16513967	      1.22507238	     -0.82335860	     33.31070776	      1.50080446	     -6.93256918	     -5.24971079	      5.75156916	     -1.53758371	      6.93606232	     10.62477473	     11.29958573	     11.11990908	    -21.95148273	     12.57613174	      2.31963179	      8.54504057	     -1.82788064	     -4.12553116	     -1.87948359
